<svg width="66" height="66" viewBox="0 0 66 66" fill="none" xmlns="http://www.w3.org/2000/svg">
<g clip-path="url(#clip0)">
<path d="M55.9039 7.78867C55.9057 7.78867 55.9077 7.78867 55.9095 7.78867C56.5337 7.78867 57.1208 8.032 57.5642 8.47422C58.0124 8.92134 58.2593 9.51667 58.2593 10.1505V45.565C58.2593 46.8637 57.1986 47.9228 55.8946 47.9261C50.3972 47.9393 41.187 49.085 34.8332 55.7342V18.6718C34.8332 18.2316 34.9456 17.818 35.1579 17.4758C40.3728 9.07756 50.3941 7.80155 55.9039 7.78867Z" fill="#454545" fill-opacity="0.95"/>
<path d="M7.7404 45.565V10.1503C7.7404 9.51647 7.98729 8.92114 8.43551 8.47403C8.87885 8.0318 9.46641 7.78847 10.09 7.78847C10.092 7.78847 10.094 7.78847 10.0957 7.78847C15.6053 7.80158 25.6267 9.07758 30.8418 17.4758C31.054 17.8181 31.1663 18.2316 31.1663 18.6718V55.734C24.8125 49.0848 15.6022 47.939 10.1049 47.9259C8.80107 47.9226 7.7404 46.8635 7.7404 45.565Z" fill="#454545" fill-opacity="0.95"/>
<path d="M2.36116 15.9558H4.07361V45.565C4.07361 48.8808 6.77517 51.5846 10.0961 51.5928C14.759 51.6039 22.4474 52.5157 27.8926 57.6693C18.4752 55.3635 8.54762 56.8624 2.88983 58.1517C2.18338 58.3126 1.45337 58.1464 0.887373 57.6953C0.32337 57.2453 -0.000183105 56.5726 -0.000183105 55.8506V18.3172C-0.000406265 17.0152 1.05915 15.9558 2.36116 15.9558Z" fill="#454545" fill-opacity="0.95"/>
<path d="M61.9262 45.565V15.9558H63.6387C64.9404 15.9558 66 17.0152 66 18.3172V55.8499C66 56.5722 65.6764 57.2446 65.1124 57.6946C64.5469 58.1455 63.8175 58.3124 63.11 58.1511C57.4522 56.8615 47.5244 55.3628 38.1075 57.6686C43.5524 52.5153 51.2408 51.6037 55.9037 51.5926C59.2244 51.5846 61.9262 48.8808 61.9262 45.565Z" fill="#454545" fill-opacity="0.95"/>
</g>
<defs>
<clipPath id="clip0">
<rect width="66" height="66" fill="white" transform="matrix(-1 0 0 1 66 0)"/>
</clipPath>
</defs>
</svg>
