<svg width="47" height="34" viewBox="0 0 47 34" fill="none" xmlns="http://www.w3.org/2000/svg">
<path d="M15.1429 28.3851H15.1451C15.1469 28.3851 15.1486 28.3848 15.1504 28.3848H40.1152C40.7299 28.3848 41.2702 27.9771 41.4391 27.3861L46.9469 8.10877C47.0656 7.69318 46.9824 7.24638 46.7225 6.90143C46.4621 6.55647 46.0551 6.35352 45.6231 6.35352H11.9673L10.983 1.92396C10.8428 1.29393 10.2841 0.845703 9.63868 0.845703H1.37696C0.616409 0.845703 7.62939e-06 1.4621 7.62939e-06 2.22266C7.62939e-06 2.98321 0.616409 3.59961 1.37696 3.59961H8.53425C8.70852 4.38454 13.2446 24.7972 13.5056 25.9715C12.0423 26.6076 11.0156 28.0667 11.0156 29.7617C11.0156 32.0394 12.8688 33.8926 15.1465 33.8926H40.1152C40.8758 33.8926 41.4922 33.2762 41.4922 32.5156C41.4922 31.7551 40.8758 31.1387 40.1152 31.1387H15.1465C14.3874 31.1387 13.7695 30.5208 13.7695 29.7617C13.7695 29.0037 14.3852 28.3869 15.1429 28.3851ZM43.7975 9.10742L39.0764 25.6309H16.2509L12.579 9.10742H43.7975Z" fill="#729290"/>
</svg>
