<svg width="63" height="63" viewBox="0 0 63 63" fill="none" xmlns="http://www.w3.org/2000/svg">
<path d="M42.7238 37.0631L33.9399 30.4751V17.0554C33.9399 15.7061 32.8492 14.6154 31.4998 14.6154C30.1505 14.6154 29.0598 15.7061 29.0598 17.0554V31.6953C29.0598 32.4638 29.421 33.1886 30.0358 33.6473L39.7957 40.9672C40.2348 41.2966 40.7473 41.4552 41.2572 41.4552C42.0014 41.4552 42.7334 41.1209 43.2117 40.4768C44.0219 39.4006 43.8023 37.8707 42.7238 37.0631Z" fill="#454545" fill-opacity="0.95"/>
<path d="M31.5 0C14.1298 0 0 14.1298 0 31.5C0 48.8702 14.1298 63 31.5 63C48.8702 63 63 48.8702 63 31.5C63 14.1298 48.8702 0 31.5 0ZM31.5 58.1201C16.8236 58.1201 4.87992 46.1764 4.87992 31.5C4.87992 16.8236 16.8236 4.87992 31.5 4.87992C46.1789 4.87992 58.1201 16.8236 58.1201 31.5C58.1201 46.1764 46.1764 58.1201 31.5 58.1201Z" fill="#454545" fill-opacity="0.95"/>
</svg>
