<svg width="24" height="24" viewBox="0 0 24 24" fill="none" xmlns="http://www.w3.org/2000/svg">
<path d="M2.84705 16.6197C-0.949871 12.8227 -0.949793 6.6445 2.84705 2.8475C6.64405 -0.949493 12.8222 -0.949493 16.6191 2.8475C19.8403 6.06874 20.3282 10.8595 18.084 14.6006C18.084 14.6006 17.9228 14.8711 18.1405 15.0886C19.3826 16.3306 23.109 20.0571 23.109 20.0571C24.0979 21.046 24.3333 22.4287 23.4563 23.3059L23.3053 23.4567C22.4284 24.3338 21.0455 24.0985 20.0567 23.1096C20.0567 23.1096 16.3381 19.391 15.0986 18.1515C14.8705 17.9234 14.6001 18.0846 14.6001 18.0846C10.8591 20.3287 6.06828 19.8409 2.84705 16.6197ZM14.8212 14.8218C17.6268 12.0162 17.6267 7.4512 14.8211 4.64561C12.0156 1.84009 7.45059 1.84002 4.64508 4.64561C1.83949 7.45112 1.83949 12.0162 4.64508 14.8218C7.45067 17.6272 12.0156 17.6272 14.8212 14.8218Z" fill="#729290"/>
</svg>
