<svg width="93" height="93" viewBox="0 0 93 93" fill="none" xmlns="http://www.w3.org/2000/svg">
<g clip-path="url(#clip0)">
<path d="M46.5002 18.3602C37.7369 18.3602 30.6064 25.4907 30.6064 34.254C30.6064 43.0172 37.7369 50.1477 46.5002 50.1477C55.2634 50.1477 62.3939 43.0172 62.3939 34.254C62.3939 25.4907 55.2634 18.3602 46.5002 18.3602Z" fill="#A88146"/>
<path d="M42.9294 72.6274L42.844 72.5493L40.8189 70.7167L36.0532 66.4049L30.8714 66.9625L27.7003 67.3022L26.9485 67.3839L24.5274 67.6437L16.9028 83.8462L28.7102 84.0024L36.3527 93L45.0417 74.538L42.9294 72.6274Z" fill="#A88146"/>
<path d="M68.4728 67.6437L66.0517 67.3839L65.2999 67.304L62.1288 66.9625L56.947 66.4049L52.1813 70.7167L50.1562 72.5493L50.0708 72.6274L47.9585 74.538L56.6475 93L64.29 84.0024L76.0974 83.8462L68.4728 67.6437Z" fill="#A88146"/>
<path d="M74.3357 34.2542L79.0778 23.6692L69.0196 17.8934L66.6348 6.54197L55.1017 7.78058L46.5002 0L37.8986 7.78076L26.3655 6.54215L23.9807 17.8934L13.9224 23.669L18.6645 34.254L13.9224 44.8389L23.9807 50.6145L26.3655 61.966L27.2446 61.8715L30.4175 61.53L33.5886 61.1904L34.4387 61.0996H34.4405L37.8986 60.7272L40.4995 63.0793L43.2439 65.5621L44.0994 66.3359L45.3562 67.4728L46.5003 68.5079L47.6445 67.4728L48.9013 66.3359L49.7568 65.5621L51.8909 63.6333L51.8927 63.6314L55.1019 60.7274L60.7068 61.3286H60.7086L61.279 61.3904L62.583 61.5302H62.5848L65.7559 61.8717L66.635 61.9662L69.0198 50.6147L79.0781 44.8391L74.3357 34.2542ZM46.5002 55.5966C34.7327 55.5966 25.1576 46.0232 25.1576 34.254C25.1576 22.4866 34.7327 12.9114 46.5002 12.9114C58.2676 12.9114 67.8427 22.4866 67.8427 34.254C67.8427 46.0232 58.2676 55.5966 46.5002 55.5966Z" fill="#A88146"/>
</g>
<defs>
<clipPath id="clip0">
<rect width="93" height="93" fill="white"/>
</clipPath>
</defs>
</svg>
