<svg width="63" height="55" viewBox="0 0 63 55" fill="none" xmlns="http://www.w3.org/2000/svg">
<path d="M38.0178 10.0907C40.9307 11.9171 42.9733 15.0077 43.3452 18.5952C44.5332 19.1503 45.8517 19.4695 47.2496 19.4695C52.353 19.4695 56.4893 15.3332 56.4893 10.2306C56.4893 5.12725 52.353 0.990936 47.2496 0.990936C42.195 0.992509 38.0948 5.05492 38.0178 10.0907ZM31.9647 29.0088C37.068 29.0088 41.2043 24.8717 41.2043 19.7691C41.2043 14.6665 37.0672 10.5302 31.9647 10.5302C26.8621 10.5302 22.7234 14.6673 22.7234 19.7699C22.7234 24.8724 26.8621 29.0088 31.9647 29.0088ZM35.884 29.6385H28.0438C21.5205 29.6385 16.2135 34.9463 16.2135 41.4696V51.0576L16.2379 51.2077L16.8983 51.4145C23.1236 53.3596 28.532 54.0083 32.9836 54.0083C41.6784 54.0083 46.7181 51.5293 47.0287 51.3713L47.6459 51.0592H47.7119V41.4696C47.7143 34.9463 42.4073 29.6385 35.884 29.6385ZM51.1705 20.1001H43.3908C43.3067 23.2127 41.978 26.0156 39.8764 28.0315C45.6748 29.7557 49.9173 35.1326 49.9173 41.4837V44.4384C57.5987 44.1569 62.0251 41.9799 62.3168 41.8336L62.934 41.5207H63V31.9296C63 25.4071 57.693 20.1001 51.1705 20.1001ZM15.752 19.4711C17.5595 19.4711 19.2412 18.9435 20.6659 18.0449C21.1187 15.091 22.7022 12.5099 24.9641 10.7519C24.9736 10.5789 24.9901 10.4075 24.9901 10.233C24.9901 5.12961 20.853 0.993295 15.752 0.993295C10.6478 0.993295 6.51228 5.12961 6.51228 10.233C6.51228 15.334 10.6478 19.4711 15.752 19.4711ZM24.0498 28.0315C21.9584 26.0258 20.6344 23.2379 20.5377 20.1441C20.2492 20.1229 19.9638 20.1001 19.6697 20.1001H11.8303C5.307 20.1001 0 25.4071 0 31.9296V41.5191L0.0243729 41.6669L0.6848 41.8753C5.67888 43.4344 10.136 44.153 14.0073 44.3794V41.4837C14.0089 35.1326 18.2498 29.7572 24.0498 28.0315Z" fill="#454545" fill-opacity="0.95"/>
</svg>
